<svg preserveAspectRatio="none" overflow="visible" style="display: block;" width="363.175" height="286.16" viewBox="0 0 363.175 286.16" fill="none" xmlns="http://www.w3.org/2000/svg">
<g id="Big DATA MTS">
<path d="M56.28 1.68C64.6 1.68 70.96 3.36 75.36 6.72001C79.76 10 81.96 15.04 81.96 21.84C81.96 25.92 80.96 29.64 78.96 33C77.04 36.36 73.56 38.88 68.52 40.56C74.28 42 78.36 44.44 80.76 47.88C83.24 51.32 84.48 55.44 84.48 60.24C84.48 68.16 82.2 74.2 77.64 78.36C73.08 82.44 66.12 84.48 56.76 84.48H0V1.68H56.28ZM61.8 57.6C61.8 54.88 60.88 52.76 59.04 51.24C57.2 49.72 54.44 48.96 50.76 48.96H22.08V69.84H50.76C54.36 69.84 57.08 69.08 58.92 67.56C60.84 66.04 61.8 63.76 61.8 60.72V57.6ZM59.28 24.24C59.28 18.96 55.96 16.32 49.32 16.32H22.08V35.04H49.32C55.96 35.04 59.28 32.2 59.28 26.52V24.24Z" fill="url(#paint0_linear_0_113)"/>
<path d="M118.737 1.68V84.48H96.4172V1.68H118.737Z" fill="url(#paint1_linear_0_113)"/>
<path d="M130.992 43.2C130.992 35.2 132.072 28.44 134.232 22.92C136.392 17.4 139.552 12.96 143.712 9.6C147.872 6.16 152.952 3.72 158.952 2.28C164.952 0.76 171.752 0 179.352 0C186.312 0 192.512 0.52 197.952 1.56C203.472 2.6 208.192 4.28 212.112 6.6C216.112 8.84 219.312 11.8 221.712 15.48C224.192 19.08 225.792 23.52 226.512 28.8H203.952C202.832 24.16 200.232 21.04 196.152 19.44C192.152 17.84 186.552 17.04 179.352 17.04C175.192 17.04 171.512 17.4 168.312 18.12C165.112 18.76 162.392 19.88 160.152 21.48C157.992 23.08 156.352 25.24 155.232 27.96C154.112 30.68 153.552 34.12 153.552 38.28V48C153.552 52.16 154.112 55.6 155.232 58.32C156.352 61.04 157.992 63.2 160.152 64.8C162.312 66.4 164.992 67.52 168.192 68.16C171.392 68.8 175.072 69.12 179.232 69.12C187.712 69.12 194.072 68 198.312 65.76C202.552 63.52 205.032 59.76 205.752 54.48H179.712V39.84H227.472V48.48C227.472 55.2 226.352 60.96 224.112 65.76C221.872 70.48 218.632 74.36 214.392 77.4C210.232 80.44 205.192 82.68 199.272 84.12C193.352 85.48 186.712 86.16 179.352 86.16C171.752 86.16 164.952 85.48 158.952 84.12C152.952 82.68 147.872 80.28 143.712 76.92C139.552 73.56 136.392 69.16 134.232 63.72C132.072 58.2 130.992 51.36 130.992 43.2Z" fill="url(#paint2_linear_0_113)"/>
<path d="M48 166.36C51.6 166.36 54.76 166.04 57.48 165.4C60.28 164.76 62.6 163.68 64.44 162.16C66.36 160.64 67.8 158.64 68.76 156.16C69.72 153.6 70.2 150.44 70.2 146.68V138.88C70.2 131.84 68.28 126.92 64.44 124.12C60.68 121.24 55.2 119.8 48 119.8H22.32V166.36H48ZM49.44 101.68C56.4 101.68 62.56 102.4 67.92 103.84C73.36 105.2 77.92 107.52 81.6 110.8C85.28 114 88.04 118.24 89.88 123.52C91.8 128.8 92.76 135.32 92.76 143.08C92.76 150.84 91.8 157.36 89.88 162.64C88.04 167.92 85.28 172.2 81.6 175.48C77.92 178.68 73.36 181 67.92 182.44C62.56 183.8 56.4 184.48 49.44 184.48H0V101.68H49.44Z" fill="url(#paint3_linear_0_113)"/>
<path d="M160.482 101.68L196.122 184.48H172.962L165.042 166H122.682L114.882 184.48H93.8822L129.762 101.68H160.482ZM129.642 149.8H158.202L143.922 116.32L129.642 149.8Z" fill="url(#paint4_linear_0_113)"/>
<path d="M183.896 119.8V101.68H273.296V119.8H239.696V184.48H217.376V119.8H183.896Z" fill="url(#paint5_linear_0_113)"/>
<path d="M327.535 101.68L363.175 184.48H340.015L332.095 166H289.735L281.935 184.48H260.935L296.815 101.68H327.535ZM296.695 149.8H325.255L310.975 116.32L296.695 149.8Z" fill="url(#paint6_linear_0_113)"/>
<path d="M20.4 220.52V284.48H0V201.68H35.16L55.68 263.48L76.32 201.68H110.28V284.48H87.96V220.28L66.36 284.48H42L20.4 220.52Z" fill="url(#paint7_linear_0_113)"/>
<path d="M119.706 219.8V201.68H209.106V219.8H175.506V284.48H153.186V219.8H119.706Z" fill="url(#paint8_linear_0_113)"/>
<path d="M235.809 258.56C236.209 260.88 236.929 262.76 237.969 264.2C239.089 265.64 240.569 266.76 242.409 267.56C244.249 268.36 246.489 268.92 249.129 269.24C251.769 269.56 254.849 269.72 258.369 269.72C265.729 269.72 271.169 269.04 274.689 267.68C278.209 266.32 279.969 263.84 279.969 260.24C279.969 258 279.009 256.32 277.089 255.2C275.249 254 272.769 253.12 269.649 252.56C266.609 252 263.129 251.6 259.209 251.36C255.289 251.12 251.289 250.8 247.209 250.4C243.129 250 239.129 249.4 235.209 248.6C231.289 247.72 227.769 246.4 224.649 244.64C221.609 242.8 219.129 240.4 217.209 237.44C215.369 234.48 214.449 230.68 214.449 226.04C214.449 221.4 215.409 217.44 217.329 214.16C219.249 210.88 222.049 208.2 225.729 206.12C229.409 203.96 233.889 202.4 239.169 201.44C244.449 200.48 250.449 200 257.169 200C270.609 200 281.009 202 288.369 206C295.809 210 299.889 216.68 300.609 226.04H277.929C277.289 222.12 275.169 219.56 271.569 218.36C267.969 217.08 263.169 216.44 257.169 216.44C249.969 216.44 244.689 217.08 241.329 218.36C238.049 219.56 236.409 221.96 236.409 225.56C236.409 227.72 237.329 229.36 239.169 230.48C241.089 231.6 243.569 232.44 246.609 233C249.729 233.56 253.249 233.96 257.169 234.2C261.089 234.44 265.089 234.76 269.169 235.16C273.329 235.56 277.369 236.2 281.289 237.08C285.209 237.88 288.689 239.16 291.729 240.92C294.849 242.6 297.329 244.88 299.169 247.76C301.089 250.64 302.049 254.32 302.049 258.8C302.049 268.56 298.449 275.56 291.249 279.8C284.049 284.04 273.089 286.16 258.369 286.16C250.849 286.16 244.329 285.64 238.809 284.6C233.289 283.56 228.689 281.92 225.009 279.68C221.409 277.44 218.609 274.6 216.609 271.16C214.689 267.64 213.529 263.44 213.129 258.56H235.809Z" fill="url(#paint9_linear_0_113)"/>
</g>
<defs>
<linearGradient id="paint0_linear_0_113" x1="-3.51954" y1="39.2305" x2="340.177" y2="174.22" gradientUnits="userSpaceOnUse">
<animateTransform attributeName="gradientTransform" type="translate" values="-18 0; 18 0; -18 0" dur="14s" repeatCount="indefinite" />
<stop offset="0.0547734" stop-color="#A8C5E2"/>
<stop offset="0.241287" stop-color="#386088"/>
<stop offset="0.357471" stop-color="#244C73"/>
<stop offset="0.503551" stop-color="#0E2C4A"/>
<stop offset="1" stop-color="#031220"/>
</linearGradient>
<linearGradient id="paint1_linear_0_113" x1="-3.51954" y1="39.2305" x2="340.177" y2="174.22" gradientUnits="userSpaceOnUse">
<animateTransform attributeName="gradientTransform" type="translate" values="-18 0; 18 0; -18 0" dur="14s" repeatCount="indefinite" />
<stop offset="0.0547734" stop-color="#A8C5E2"/>
<stop offset="0.241287" stop-color="#386088"/>
<stop offset="0.357471" stop-color="#244C73"/>
<stop offset="0.503551" stop-color="#0E2C4A"/>
<stop offset="1" stop-color="#031220"/>
</linearGradient>
<linearGradient id="paint2_linear_0_113" x1="-3.51954" y1="39.2305" x2="340.177" y2="174.22" gradientUnits="userSpaceOnUse">
<animateTransform attributeName="gradientTransform" type="translate" values="-18 0; 18 0; -18 0" dur="14s" repeatCount="indefinite" />
<stop offset="0.0547734" stop-color="#A8C5E2"/>
<stop offset="0.241287" stop-color="#386088"/>
<stop offset="0.357471" stop-color="#244C73"/>
<stop offset="0.503551" stop-color="#0E2C4A"/>
<stop offset="1" stop-color="#031220"/>
</linearGradient>
<linearGradient id="paint3_linear_0_113" x1="-3.51954" y1="39.2305" x2="340.177" y2="174.22" gradientUnits="userSpaceOnUse">
<animateTransform attributeName="gradientTransform" type="translate" values="-18 0; 18 0; -18 0" dur="14s" repeatCount="indefinite" />
<stop offset="0.0547734" stop-color="#A8C5E2"/>
<stop offset="0.241287" stop-color="#386088"/>
<stop offset="0.357471" stop-color="#244C73"/>
<stop offset="0.503551" stop-color="#0E2C4A"/>
<stop offset="1" stop-color="#031220"/>
</linearGradient>
<linearGradient id="paint4_linear_0_113" x1="-3.51954" y1="39.2305" x2="340.177" y2="174.22" gradientUnits="userSpaceOnUse">
<animateTransform attributeName="gradientTransform" type="translate" values="-18 0; 18 0; -18 0" dur="14s" repeatCount="indefinite" />
<stop offset="0.0547734" stop-color="#A8C5E2"/>
<stop offset="0.241287" stop-color="#386088"/>
<stop offset="0.357471" stop-color="#244C73"/>
<stop offset="0.503551" stop-color="#0E2C4A"/>
<stop offset="1" stop-color="#031220"/>
</linearGradient>
<linearGradient id="paint5_linear_0_113" x1="-3.51954" y1="39.2305" x2="340.177" y2="174.22" gradientUnits="userSpaceOnUse">
<animateTransform attributeName="gradientTransform" type="translate" values="-18 0; 18 0; -18 0" dur="14s" repeatCount="indefinite" />
<stop offset="0.0547734" stop-color="#A8C5E2"/>
<stop offset="0.241287" stop-color="#386088"/>
<stop offset="0.357471" stop-color="#244C73"/>
<stop offset="0.503551" stop-color="#0E2C4A"/>
<stop offset="1" stop-color="#031220"/>
</linearGradient>
<linearGradient id="paint6_linear_0_113" x1="-3.51954" y1="39.2305" x2="340.177" y2="174.22" gradientUnits="userSpaceOnUse">
<animateTransform attributeName="gradientTransform" type="translate" values="-18 0; 18 0; -18 0" dur="14s" repeatCount="indefinite" />
<stop offset="0.0547734" stop-color="#A8C5E2"/>
<stop offset="0.241287" stop-color="#386088"/>
<stop offset="0.357471" stop-color="#244C73"/>
<stop offset="0.503551" stop-color="#0E2C4A"/>
<stop offset="1" stop-color="#031220"/>
</linearGradient>
<linearGradient id="paint7_linear_0_113" x1="-3.51954" y1="39.2305" x2="340.177" y2="174.22" gradientUnits="userSpaceOnUse">
<animateTransform attributeName="gradientTransform" type="translate" values="-18 0; 18 0; -18 0" dur="14s" repeatCount="indefinite" />
<stop offset="0.0547734" stop-color="#A8C5E2"/>
<stop offset="0.241287" stop-color="#386088"/>
<stop offset="0.357471" stop-color="#244C73"/>
<stop offset="0.503551" stop-color="#0E2C4A"/>
<stop offset="1" stop-color="#031220"/>
</linearGradient>
<linearGradient id="paint8_linear_0_113" x1="-3.51954" y1="39.2305" x2="340.177" y2="174.22" gradientUnits="userSpaceOnUse">
<animateTransform attributeName="gradientTransform" type="translate" values="-18 0; 18 0; -18 0" dur="14s" repeatCount="indefinite" />
<stop offset="0.0547734" stop-color="#A8C5E2"/>
<stop offset="0.241287" stop-color="#386088"/>
<stop offset="0.357471" stop-color="#244C73"/>
<stop offset="0.503551" stop-color="#0E2C4A"/>
<stop offset="1" stop-color="#031220"/>
</linearGradient>
<linearGradient id="paint9_linear_0_113" x1="-3.51954" y1="39.2305" x2="340.177" y2="174.22" gradientUnits="userSpaceOnUse">
<animateTransform attributeName="gradientTransform" type="translate" values="-18 0; 18 0; -18 0" dur="14s" repeatCount="indefinite" />
<stop offset="0.0547734" stop-color="#A8C5E2"/>
<stop offset="0.241287" stop-color="#386088"/>
<stop offset="0.357471" stop-color="#244C73"/>
<stop offset="0.503551" stop-color="#0E2C4A"/>
<stop offset="1" stop-color="#031220"/>
</linearGradient>
</defs>
</svg>
