<svg preserveAspectRatio="none" overflow="visible" style="display: block;" width="166.346" height="54.4415" viewBox="0 0 166.346 54.4415" fill="none" xmlns="http://www.w3.org/2000/svg">
<g id="Combined-Shape">
<path id="Vector" fill-rule="evenodd" clip-rule="evenodd" d="M118.977 40.3522C118.297 41.0303 117.363 41.4519 116.335 41.4519H113.269V33.9756H116.335C117.363 33.9756 118.297 34.3972 118.977 35.0753C119.656 35.7535 120.077 36.6872 120.077 37.7146C120.077 38.7393 119.656 39.673 118.977 40.3522ZM109.298 41.4519H106.231C105.204 41.4519 104.27 41.0303 103.59 40.3522C102.911 39.673 102.49 38.7393 102.49 37.7139C102.49 36.6872 102.911 35.7535 103.59 35.0753C104.269 34.3972 105.204 33.9756 106.231 33.9756H109.298V41.4519ZM121.783 32.2705C123.18 33.6667 124.047 35.5939 124.047 37.7139C124.047 39.8343 123.18 41.7608 121.783 43.1571C120.388 44.5527 118.459 45.4188 116.335 45.4188H113.269V47.037C113.269 48.133 112.379 49.0211 111.283 49.0211C110.187 49.0211 109.298 48.133 109.298 47.037V45.4188H106.231C104.108 45.4188 102.18 44.5527 100.784 43.1571C99.3864 41.7608 98.5193 39.8343 98.5193 37.7146C98.5193 35.5939 99.3864 33.6667 100.784 32.2705C102.18 30.8758 104.108 30.0087 106.231 30.0087H109.298V28.3905C109.298 27.2948 110.187 26.4064 111.283 26.4064C112.379 26.4064 113.269 27.2948 113.269 28.3905V30.0087H116.335C118.459 30.0087 120.388 30.8758 121.783 32.2705ZM129.165 35.7276H141.645C142.743 35.7276 143.634 36.617 143.634 37.7147C143.634 38.8107 142.743 39.7018 141.645 39.7018H129.165C128.067 39.7018 127.176 38.8107 127.176 37.7147C127.176 36.617 128.067 35.7276 129.165 35.7276ZM164.36 43.1152C165.457 43.1152 166.345 44.0036 166.345 45.0996V48.9259C166.345 50.0209 165.457 50.9093 164.36 50.9093C163.263 50.9093 162.376 50.0209 162.376 48.9259V47.0831H161.607H147.342V48.9259C147.342 50.0209 146.453 50.9093 145.357 50.9093C144.261 50.9093 143.372 50.0209 143.372 48.9259V45.0996C143.372 44.0036 144.261 43.1152 145.357 43.1152C145.495 43.1152 145.628 43.1295 145.757 43.1552C146.273 42.8246 146.783 42.2811 147.186 41.6029C147.622 40.8705 147.907 40.0054 147.907 39.1116V29.9249C147.907 29.4107 148.102 28.9421 148.424 28.5902L148.455 28.5563L148.456 28.5553L148.488 28.5216L148.49 28.5206L148.522 28.4886L148.523 28.4876L148.558 28.4563V28.4556L148.594 28.4243V28.4236L148.629 28.3933H148.63L148.667 28.3636L148.668 28.363L148.704 28.3343H148.705L148.743 28.3067L148.744 28.306L148.783 28.279V28.2783L148.822 28.2533L148.823 28.2523L148.862 28.2273L148.864 28.2267L148.904 28.2034C149.195 28.0367 149.532 27.9398 149.893 27.9398H161.607C162.532 27.9398 163.31 28.5722 163.529 29.4287L163.541 29.4757L163.551 29.524V29.525L163.56 29.573L163.569 29.622L163.576 29.6709V29.6719L163.582 29.7209V29.7216L163.585 29.7709L163.59 29.8206V29.8226L163.592 29.8722V29.8732V29.9239V29.9249V43.1152H164.36ZM159.621 43.1152V31.9077H151.877V39.1116C151.877 40.5499 151.492 41.9239 150.877 43.1152H159.621ZM72.7067 30.6592C74.5136 32.4644 75.6319 34.9593 75.6319 37.7136C75.6319 40.4678 74.5136 42.9628 72.7067 44.7679C70.8999 46.5741 68.4036 47.6908 65.647 47.6908C62.8895 47.6908 60.3925 46.5741 58.5867 44.7679C56.7788 42.9628 55.6615 40.4678 55.6615 37.7136C55.6615 34.9593 56.7788 32.4644 58.5867 30.6592C60.3925 28.8547 62.8895 27.7363 65.647 27.7363C68.4036 27.7363 70.8999 28.8547 72.7067 30.6592ZM69.9002 41.963C70.9882 40.876 71.6607 39.3738 71.6607 37.7136C71.6607 36.0537 70.9882 34.5511 69.9002 33.4641C68.8112 32.3771 67.3076 31.7042 65.647 31.7042C63.9855 31.7042 62.4819 32.3771 61.3932 33.4641C60.3052 34.5511 59.6317 36.0537 59.6317 37.7136C59.6317 39.3738 60.3052 40.876 61.3932 41.963C62.4819 43.0501 63.9855 43.7239 65.647 43.7239C67.3076 43.7239 68.8112 43.0501 69.9002 41.963ZM80.8242 39.7011C79.7265 39.7011 78.8355 38.811 78.8355 37.714C78.8355 36.6163 79.7265 35.7269 80.8242 35.7269H93.3044C94.4031 35.7269 95.2939 36.6163 95.2939 37.714C95.2939 38.811 94.4031 39.7011 93.3044 39.7011H80.8242ZM0 28.633L45.5946 2.72757L45.7049 54.4415L0 28.633Z" fill="#7CA0C4"/>
<path id="Vector_2" fill-rule="evenodd" clip-rule="evenodd" d="M67.5023 20.8191C67.5023 20.9111 67.4686 20.9911 67.4017 21.0574C67.3344 21.1254 67.255 21.158 67.1621 21.158H65.5145C65.4219 21.158 65.3422 21.1254 65.2749 21.0574C65.2079 20.9911 65.1743 20.9111 65.1743 20.8191V14.3699H62.1298V20.8191C62.1298 20.9111 62.0955 20.9911 62.0292 21.0574C61.9612 21.1254 61.8825 21.158 61.7896 21.158H60.141C60.0484 21.158 59.9697 21.1254 59.9018 21.0574C59.8355 20.9911 59.8011 20.9111 59.8011 20.8191V12.6981C59.8011 12.6054 59.8355 12.5261 59.9018 12.4588C59.9697 12.3918 60.0484 12.3581 60.141 12.3581H67.1621C67.255 12.3581 67.3344 12.3918 67.4017 12.4588C67.4686 12.5261 67.5023 12.6054 67.5023 12.6981V20.8191ZM75.4827 18.1419C75.4827 19.1386 75.1992 19.9117 74.633 20.4616C74.0675 21.0097 73.2884 21.2843 72.2986 21.2843H72.0974C72.0054 21.2843 71.9257 21.2507 71.8588 21.1837C71.7914 21.1167 71.7581 21.0364 71.7581 20.9444V19.6125C71.7581 19.5198 71.7914 19.4402 71.8588 19.3732C71.9257 19.3062 72.0054 19.2725 72.0974 19.2725C72.4752 19.2725 72.7458 19.1842 72.9091 19.0086C73.0727 18.833 73.1547 18.5434 73.1547 18.1419V12.6981C73.1547 12.6054 73.1874 12.5261 73.2554 12.4588C73.3227 12.3918 73.4023 12.3581 73.494 12.3581H79.8232C79.9152 12.3581 79.9948 12.3918 80.0628 12.4588C80.1298 12.5261 80.1634 12.6054 80.1634 12.6981V20.8191C80.1634 20.9111 80.1298 20.9911 80.0628 21.0574C79.9948 21.1254 79.9152 21.158 79.8232 21.158H78.1747C78.0827 21.158 78.0024 21.1254 77.9361 21.0574C77.8691 20.9911 77.8354 20.9111 77.8354 20.8191V14.3699H75.4827V18.1419ZM93.0632 20.6928C93.0968 20.7775 93.1135 20.8404 93.1135 20.8818C93.1135 20.9567 93.0861 21.0221 93.0322 21.0767C92.9775 21.1307 92.9122 21.158 92.8362 21.158H91.251C91.108 21.158 90.9967 21.127 90.9181 21.0644C90.8378 21.0011 90.7855 20.9284 90.7608 20.8438L90.4082 19.8014H87.0615L86.7093 20.8438C86.6836 20.9284 86.6306 21.0011 86.552 21.0644C86.4723 21.127 86.361 21.158 86.2181 21.158H84.6329C84.5579 21.158 84.4926 21.1307 84.4376 21.0767C84.3829 21.0221 84.3566 20.9567 84.3566 20.8818C84.3566 20.8404 84.3723 20.7775 84.4059 20.6928L87.1491 12.773C87.1908 12.6557 87.2588 12.5578 87.3504 12.4764C87.4424 12.3981 87.5644 12.3581 87.7147 12.3581H89.7538C89.9047 12.3581 90.0267 12.3981 90.1183 12.4764C90.2113 12.5578 90.2783 12.6557 90.3199 12.773L93.0632 20.6928ZM89.7538 17.8523L88.734 14.8345L87.7147 17.8523H89.7538ZM102.893 12.3581C102.985 12.3581 103.065 12.3918 103.132 12.4588C103.199 12.5261 103.233 12.6054 103.233 12.6981V14.0293C103.233 14.123 103.199 14.2023 103.132 14.2693C103.065 14.3366 102.985 14.3699 102.893 14.3699H100.678V20.8191C100.678 20.9111 100.645 20.9911 100.577 21.0574C100.511 21.1254 100.431 21.158 100.338 21.158H98.6909C98.5979 21.158 98.5176 21.1254 98.4513 21.0574C98.3843 20.9911 98.3507 20.9111 98.3507 20.8191V14.3699H96.136C96.044 14.3699 95.9637 14.3366 95.8974 14.2693C95.83 14.2023 95.7967 14.123 95.7967 14.0293V12.6981C95.7967 12.6054 95.83 12.5261 95.8974 12.4588C95.9637 12.3918 96.044 12.3581 96.136 12.3581H102.893ZM112.484 13.3769C113.532 13.5268 114.386 13.8817 115.044 14.4389C115.703 14.9957 116.032 15.7692 116.032 16.7586C116.032 17.7473 115.703 18.5204 115.044 19.0776C114.386 19.6354 113.532 19.9893 112.484 20.1403V21.0697C112.484 21.1624 112.45 21.242 112.383 21.309C112.316 21.377 112.236 21.4096 112.143 21.4096H110.495C110.404 21.4096 110.324 21.377 110.256 21.309C110.189 21.242 110.156 21.1624 110.156 21.0697V20.1403C109.107 19.9893 108.254 19.6354 107.595 19.0776C106.936 18.5204 106.607 17.7473 106.607 16.7586C106.607 15.7692 106.936 14.9957 107.595 14.4389C108.254 13.8817 109.107 13.5268 110.156 13.3769V12.4465C110.156 12.3538 110.189 12.2745 110.256 12.2072C110.324 12.1402 110.404 12.1066 110.495 12.1066H112.143C112.236 12.1066 112.316 12.1402 112.383 12.2072C112.45 12.2745 112.484 12.3538 112.484 12.4465V13.3769ZM110.156 15.3886C109.342 15.5476 108.936 16.0038 108.936 16.7586C108.936 17.5124 109.342 17.9689 110.156 18.1295V15.3886ZM112.484 18.1295C113.297 17.9689 113.704 17.5124 113.704 16.7586C113.704 16.0038 113.297 15.5476 112.484 15.3886V18.1295ZM123.774 12.2322C124.571 12.2322 125.258 12.3831 125.837 12.6847C126.416 12.9866 126.863 13.3945 127.177 13.911C127.492 14.4256 127.665 15.0021 127.7 15.6402C127.716 15.8742 127.725 16.2511 127.725 16.7709C127.725 17.2821 127.716 17.651 127.7 17.8769C127.665 18.5144 127.492 19.0906 127.177 19.6061C126.863 20.1216 126.416 20.5305 125.837 20.8308C125.258 21.1334 124.571 21.2843 123.774 21.2843C122.976 21.2843 122.289 21.1334 121.71 20.8308C121.131 20.5305 120.684 20.1216 120.37 19.6061C120.056 19.0906 119.881 18.5144 119.848 17.8769C119.831 17.4241 119.823 17.0562 119.823 16.7709C119.823 16.486 119.831 16.1088 119.848 15.6402C119.881 15.0021 120.056 14.4256 120.37 13.911C120.684 13.3945 121.131 12.9866 121.71 12.6847C122.289 12.3831 122.976 12.2322 123.774 12.2322ZM125.372 15.7019C125.329 15.258 125.177 14.9041 124.913 14.6402C124.648 14.3753 124.268 14.2436 123.774 14.2436C123.279 14.2436 122.899 14.3753 122.634 14.6402C122.37 14.9041 122.218 15.258 122.175 15.7019C122.151 15.9785 122.138 16.327 122.138 16.7453C122.138 17.1568 122.151 17.5124 122.175 17.8143C122.218 18.2585 122.37 18.6131 122.634 18.8763C122.899 19.1409 123.279 19.2725 123.774 19.2725C124.268 19.2725 124.648 19.1409 124.913 18.8763C125.177 18.6131 125.329 18.2585 125.372 17.8143C125.397 17.5124 125.409 17.1568 125.409 16.7453C125.409 16.327 125.397 15.9785 125.372 15.7019ZM135.781 12.3581C136.872 12.3581 137.726 12.6081 138.342 13.1069C138.959 13.6048 139.267 14.3366 139.267 15.3003C139.267 16.2644 138.959 16.9962 138.342 17.5C137.726 18.0032 136.872 18.2548 135.781 18.2548H134.171V20.8191C134.171 20.9111 134.138 20.9911 134.07 21.0574C134.003 21.1254 133.924 21.158 133.831 21.158H132.184C132.091 21.158 132.01 21.1254 131.944 21.0574C131.877 20.9911 131.843 20.9111 131.843 20.8191V12.6981C131.843 12.6054 131.877 12.5261 131.944 12.4588C132.01 12.3918 132.091 12.3581 132.184 12.3581H135.781ZM135.719 16.2934C136.087 16.2934 136.384 16.2114 136.606 16.0471C136.828 15.8848 136.939 15.6359 136.939 15.3003C136.939 14.9651 136.828 14.7152 136.606 14.5519C136.384 14.3886 136.087 14.3066 135.719 14.3066H134.171V16.2934H135.719ZM145.725 16.6579V20.8191C145.725 20.9111 145.692 20.9911 145.625 21.0574C145.557 21.1254 145.477 21.158 145.385 21.158H143.738C143.645 21.158 143.565 21.1254 143.498 21.0574C143.43 20.9911 143.397 20.9111 143.397 20.8191V12.6981C143.397 12.6054 143.43 12.5261 143.498 12.4588C143.565 12.3918 143.645 12.3581 143.738 12.3581H145.196C145.432 12.3581 145.612 12.4711 145.739 12.6981L147.776 16.1797L149.814 12.6981C149.941 12.4711 150.122 12.3581 150.356 12.3581H151.815C151.908 12.3581 151.987 12.3918 152.055 12.4588C152.122 12.5261 152.155 12.6054 152.155 12.6981V20.8191C152.155 20.9111 152.122 20.9911 152.055 21.0574C151.987 21.1254 151.908 21.158 151.815 21.158H150.167C150.075 21.158 149.995 21.1254 149.928 21.0574C149.861 20.9911 149.827 20.9111 149.827 20.8191V16.6579L148.645 18.7307C148.586 18.825 148.521 18.8993 148.45 18.9583C148.379 19.0166 148.288 19.0456 148.179 19.0456H147.374C147.264 19.0456 147.174 19.0166 147.103 18.9583C147.032 18.8993 146.967 18.825 146.908 18.7307L145.725 16.6579ZM164.804 20.6928C164.838 20.7775 164.854 20.8404 164.854 20.8818C164.854 20.9567 164.827 21.0221 164.772 21.0767C164.718 21.1307 164.654 21.158 164.578 21.158H162.993C162.85 21.158 162.739 21.127 162.658 21.0644C162.579 21.0011 162.526 20.9284 162.501 20.8438L162.149 19.8014H158.802L158.45 20.8438C158.426 20.9284 158.373 21.0011 158.292 21.0644C158.213 21.127 158.102 21.158 157.959 21.158H156.374C156.298 21.158 156.233 21.1307 156.179 21.0767C156.124 21.0221 156.097 20.9567 156.097 20.8818C156.097 20.8404 156.113 20.7775 156.147 20.6928L158.89 12.773C158.932 12.6557 158.999 12.5578 159.092 12.4764C159.183 12.3981 159.305 12.3581 159.456 12.3581H161.495C161.646 12.3581 161.768 12.3981 161.86 12.4764C161.951 12.5578 162.02 12.6557 162.062 12.773L164.804 20.6928ZM161.495 17.8523H159.456L160.476 14.8345L161.495 17.8523ZM23.9006 33.0774V0L53.248 16.5374L23.9006 33.0774Z" fill="#B2C7DC"/>
</g>
</svg>
